<svg xmlns="http://www.w3.org/2000/svg" xmlns:xlink="http://www.w3.org/1999/xlink" width="100px" height="103px" viewBox="0 0 100 103" version="1.1"><path style=" stroke:none;fill-rule:nonzero;fill:rgb(100%,100%,100%);fill-opacity:1;" d="M 77.042969 72.558594 L 67.039062 72.558594 L 67.039062 47.546875 C 67.039062 37.125 77.042969 37.203125 77.042969 37.203125 Z M 61.96875 72.558594 L 51.9375 72.558594 L 51.9375 37.054688 C 51.9375 26.648438 61.925781 26.714844 61.925781 26.714844 Z M 46.894531 72.558594 L 36.820312 72.558594 L 36.820312 26.714844 C 36.820312 26.714844 46.796875 26.648438 46.796875 37.054688 Z M 31.820312 72.558594 L 21.722656 72.558594 L 21.722656 37.203125 C 21.722656 37.203125 31.695312 37.125 31.695312 47.546875 Z M 98.652344 50.925781 C 98.652344 41.222656 95.757812 31.742188 90.335938 23.679688 C 84.917969 15.613281 77.210938 9.328125 68.199219 5.613281 C 59.183594 1.902344 49.265625 0.929688 39.695312 2.824219 C 30.125 4.714844 21.335938 9.386719 14.4375 16.246094 C 7.539062 23.105469 2.839844 31.84375 0.9375 41.355469 C -0.964844 50.871094 0.0117188 60.730469 3.742188 69.691406 C 7.476562 78.652344 13.800781 86.3125 21.914062 91.703125 C 30.027344 97.089844 39.5625 99.964844 49.320312 99.964844 C 62.402344 99.964844 74.949219 94.800781 84.203125 85.601562 C 93.453125 76.40625 98.652344 63.929688 98.652344 50.925781 Z M 98.652344 50.925781 "/></svg>
