<?xml version="1.0" encoding="UTF-8"?>
<svg xmlns="http://www.w3.org/2000/svg" xmlns:xlink="http://www.w3.org/1999/xlink" width="45" height="46.349999" viewBox="0 0 45 46.349999">
<path fill-rule="nonzero" fill="rgb(0%, 0%, 0%)" fill-opacity="1" d="M 34.667969 32.648438 L 30.167969 32.648438 L 30.167969 21.394531 C 30.167969 16.703125 34.667969 16.738281 34.667969 16.738281 Z M 27.882812 32.648438 L 23.375 32.648438 L 23.375 16.675781 C 23.375 11.992188 27.867188 12.023438 27.867188 12.023438 Z M 21.105469 32.648438 L 16.570312 32.648438 L 16.570312 12.023438 C 16.570312 12.023438 21.058594 11.992188 21.058594 16.675781 Z M 14.320312 32.648438 L 9.773438 32.648438 L 9.773438 16.738281 C 9.773438 16.738281 14.261719 16.703125 14.261719 21.394531 Z M 44.390625 22.917969 C 44.390625 18.550781 43.089844 14.285156 40.652344 10.65625 C 38.214844 7.027344 34.746094 4.199219 30.691406 2.527344 C 26.632812 0.855469 22.167969 0.417969 17.863281 1.269531 C 13.554688 2.121094 9.601562 4.222656 6.5 7.3125 C 3.390625 10.394531 1.277344 14.328125 0.421875 18.609375 C -0.433594 22.890625 0.00390625 27.328125 1.683594 31.359375 C 3.363281 35.390625 6.210938 38.84375 9.859375 41.269531 C 13.511719 43.6875 17.804688 44.984375 22.195312 44.984375 C 28.078125 44.984375 33.726562 42.660156 37.894531 38.519531 C 42.050781 34.382812 44.390625 28.769531 44.390625 22.917969 Z M 44.390625 22.917969 "/>
</svg>
