<?xml version="1.0" encoding="UTF-8"?>
<svg xmlns="http://www.w3.org/2000/svg" xmlns:xlink="http://www.w3.org/1999/xlink" width="35" height="36.05" viewBox="0 0 35 36.05">
<path fill-rule="nonzero" fill="rgb(100%, 100%, 100%)" fill-opacity="1" d="M 26.964844 25.394531 L 23.464844 25.394531 L 23.464844 16.640625 C 23.464844 12.992188 26.964844 13.019531 26.964844 13.019531 Z M 21.6875 25.394531 L 18.179688 25.394531 L 18.179688 12.96875 C 18.179688 9.328125 21.675781 9.351562 21.675781 9.351562 Z M 16.414062 25.394531 L 12.886719 25.394531 L 12.886719 9.351562 C 12.886719 9.351562 16.378906 9.328125 16.378906 12.96875 Z M 11.136719 25.394531 L 7.601562 25.394531 L 7.601562 13.019531 C 7.601562 13.019531 11.09375 12.992188 11.09375 16.640625 Z M 34.527344 17.824219 C 34.527344 14.429688 33.515625 11.109375 31.617188 8.289062 C 29.722656 5.464844 27.023438 3.265625 23.871094 1.964844 C 20.714844 0.664062 17.242188 0.324219 13.894531 0.988281 C 10.542969 1.648438 7.46875 3.285156 5.054688 5.6875 C 2.636719 8.085938 0.992188 11.144531 0.328125 14.472656 C -0.335938 17.804688 0.00390625 21.253906 1.308594 24.390625 C 2.617188 27.527344 4.832031 30.210938 7.667969 32.097656 C 10.507812 33.980469 13.847656 34.988281 17.261719 34.988281 C 21.839844 34.988281 26.230469 33.179688 29.472656 29.960938 C 32.707031 26.742188 34.527344 22.375 34.527344 17.824219 Z M 34.527344 17.824219 "/>
</svg>
